<?xml version="1.0" encoding="UTF-8" standalone="no"?>
<svg
   xmlns:dc="http://purl.org/dc/elements/1.1/"
   xmlns:cc="http://creativecommons.org/ns#"
   xmlns:rdf="http://www.w3.org/1999/02/22-rdf-syntax-ns#"
   xmlns:svg="http://www.w3.org/2000/svg"
   xmlns="http://www.w3.org/2000/svg"
   xmlns:sodipodi="http://sodipodi.sourceforge.net/DTD/sodipodi-0.dtd"
   xmlns:inkscape="http://www.inkscape.org/namespaces/inkscape"
   version="1.1"
   x="0px"
   y="0px"
   viewBox="0 0 44 44"
   enable-background="new 0 0 44 44"
   xml:space="preserve"
   id="svg16"
   sodipodi:docname="happy.svg"
   width="44"
   height="44"
   inkscape:version="0.92.1 r15371"><metadata
     id="metadata22"><rdf:RDF><cc:Work
         rdf:about=""><dc:format>image/svg+xml</dc:format><dc:type
           rdf:resource="http://purl.org/dc/dcmitype/StillImage" /><dc:title /></cc:Work></rdf:RDF></metadata><defs
     id="defs20" /><sodipodi:namedview
     pagecolor="#ffffff"
     bordercolor="#666666"
     borderopacity="1"
     objecttolerance="10"
     gridtolerance="10"
     guidetolerance="10"
     inkscape:pageopacity="0"
     inkscape:pageshadow="2"
     inkscape:window-width="2736"
     inkscape:window-height="1699"
     id="namedview18"
     showgrid="false"
     fit-margin-top="0"
     fit-margin-left="0"
     fit-margin-right="0"
     fit-margin-bottom="0"
     inkscape:zoom="4.2909091"
     inkscape:cx="-26.008474"
     inkscape:cy="16.5"
     inkscape:window-x="-13"
     inkscape:window-y="-13"
     inkscape:window-maximized="1"
     inkscape:current-layer="svg16" /><g
     id="g10"
     style="fill:#ffffff;stroke:none"><circle
       cx="14.5"
       cy="14.5"
       r="3.5"
       id="circle2"
       style="fill:#ffffff;stroke:none" /><circle
       cx="30.5"
       cy="14.5"
       r="3.5"
       id="circle4"
       style="fill:#ffffff;stroke:none" /><path
       d="M 22,0 C 9.87,0 0,9.87 0,22 0,34.13 9.87,44 22,44 34.13,44 44,34.13 44,22 44,9.87 34.13,0 22,0 Z m 0,42 C 10.97,42 2,33.03 2,22 2,10.97 10.97,2 22,2 33.03,2 42,10.97 42,22 42,33.03 33.03,42 22,42 Z"
       id="path6"
       inkscape:connector-curvature="0"
       style="fill:#ffffff;stroke:none" /><path
       d="M 33,24 H 11 c -0.55,0 -1,0.45 -1,1 0,6.62 5.38,12 12,12 6.62,0 12,-5.38 12,-12 0,-0.55 -0.45,-1 -1,-1 z M 22,35 c -5.18,0 -9.45,-3.95 -9.95,-9 h 19.9 c -0.5,5.05 -4.77,9 -9.95,9 z"
       id="path8"
       inkscape:connector-curvature="0"
       style="fill:#ffffff;stroke:none" /></g></svg>